<svg xmlns="http://www.w3.org/2000/svg" width="1024" height="1024" fill="none" viewBox="0 0 120 120"><defs><linearGradient id="shell" x1="45" x2="75" y1="25" y2="101" gradientUnits="userSpaceOnUse"><stop stop-color="#ff4938"/><stop offset=".48" stop-color="#f0181f"/><stop offset="1" stop-color="#b80716"/></linearGradient><linearGradient id="joint" x1="12" x2="35" y1="91" y2="114" gradientUnits="userSpaceOnUse"><stop stop-color="#fc3e32"/><stop offset="1" stop-color="#b70b1b"/></linearGradient></defs><path fill="url(#joint)" d="M21 86L41 100L29 117L9 104Z"/><path stroke="#920b18" stroke-linecap="round" stroke-width="2.2" d="M14 97L34 111M18 91L39 105"/><path fill="url(#shell)" stroke="#ce1320" stroke-linejoin="round" stroke-width=".7" d="M22 91C15 78 19 65 28 53C46 29 72 11 100 8C105 7 108 9 104 13L94 24L93 29L85 34L85 40L77 44L75 49L65 56L54 65C67 60 86 52 104 41C109 38 112 38 109 44C105 61 92 80 72 94C56 104 39 102 30 97Z"/><path stroke="#ffa893" stroke-linecap="round" stroke-width="2.4" d="M26 69C43 39 71 17 99 12"/><path stroke="#ff8474" stroke-linecap="round" stroke-width="1.8" d="M59 66C76 59 95 47 106 42"/><path stroke="#f94740" stroke-linecap="round" stroke-width="1.5" d="M26 89C36 98 51 100 67 92"/></svg>